PathFileType	4	(X/Y/Z)	Patient4_TMGait_0pt4_01_right_12.trc.trc
DataRate	CameraRate	NumFrames	NumMarkers	Units	OrigDataRate	OrigDataStartFrame	OrigNumFrames
70.351758793970	70.351758793970	5	33	mm	70.351758793970	106	       141
Frame#	Time	Sacral			L.Shoulder			Chest			R.Shoulder			Neck			R.ASIS			L.ASIS			R.Thigh.Superior			R.Thigh.Lateral			R.Thigh.Inferior			R.Patella			L.Thigh.Superior			L.Thigh.Lateral			L.Thigh.Inferior			L.Patella			L.Shank.Superior			L.Shank.Lateral			L.Shank.Inferior			R.Shank.Superior			R.Shank.Lateral			R.Shank.Inferior			R.Heel			R.Midfoot.Superior			R.Midfoot.Lateral			R.Toe			L.Heel			L.Midfoot.Lateral			L.Midfoot.Superior			L.Toe			L.Elbow			L.Wrist			R.Elbow			R.Wrist			
		X1	Y1	Z1	X2	Y2	Z2	X3	Y3	Z3	X4	Y4	Z4	X5	Y5	Z5	X6	Y6	Z6	X7	Y7	Z7	X8	Y8	Z8	X9	Y9	Z9	X10	Y10	Z10	X11	Y11	Z11	X12	Y12	Z12	X13	Y13	Z13	X14	Y14	Z14	X15	Y15	Z15	X16	Y16	Z16	X17	Y17	Z17	X18	Y18	Z18	X19	Y19	Z19	X20	Y20	Z20	X21	Y21	Z21	X22	Y22	Z22	X23	Y23	Z23	X24	Y24	Z24	X25	Y25	Z25	X26	Y26	Z26	X27	Y27	Z27	X28	Y28	Z28	X29	Y29	Z29	X30	Y30	Z30	X31	Y31	Z31	X32	Y32	Z32	X33	Y33	Z33	

106	16.782500000000	809.687311427322	1005.885056439880	447.768852741981	1004.891099587316	1432.203637633212	263.085849478981	1091.669851640143	1370.006082878894	434.863416861292	994.153430777269	1449.514705906614	598.902393280425	982.687153612825	1500.166527826824	416.317458194099	1034.917384812942	952.071728290562	575.520207581606	1032.671275877415	968.958857845942	301.306944512581	1124.674179641576	788.211663927183	546.650259005631	1092.515061857515	664.221631685594	621.861631651384	1184.270253815639	629.959774466865	543.611683319807	1212.308574236185	523.793867008004	568.515665871089	1070.755652066143	750.721543896153	328.674751989960	974.057290572961	638.637881347956	270.283512683304	1052.605721533417	557.455075669025	334.137278624540	1047.763708406289	490.021914503374	345.823725556235	1022.167024181792	419.027734351869	338.570284580950	931.716710261464	303.818471752302	289.464241230307	983.005404160698	194.885568431380	365.568701505315	1151.695145895308	439.457217256344	573.896918562683	1042.141815830632	373.561006263460	632.478459835134	1054.056868312952	264.360127168036	582.567389684859	873.745350455400	156.968784624122	552.689370035006	1051.290129864128	140.901468231256	594.152631506748	945.264790123562	111.541190187863	625.204724000941	1140.391271859447	46.133932076291	615.435069034903	854.103310949720	38.560548866175	410.117204291370	930.581626997484	35.011433031062	331.423104869226	1013.194439347594	96.531091589842	359.801269389871	1142.765978254056	44.005742252032	338.016221693642	998.291684342117	1084.255327360265	133.409952759377	1162.316648155064	878.868683488828	143.136712083722	874.365613726216	1129.742514548606	723.194336674806	896.978632465018	869.651807732658	744.131697679451	
107	16.796714285714	808.842704199431	1006.200075192664	447.534486020157	1005.864029444856	1431.441552848840	262.224330525076	1091.664875870839	1369.729508147291	434.643303431226	993.598802671440	1450.025693479226	597.957534954578	982.765398512884	1499.990421727970	415.165031817038	1033.631671755032	952.055125308857	575.993700181122	1032.200879516786	968.947457206404	301.752303356609	1122.937970465854	788.166641310607	546.697695488431	1091.244606594166	664.131690862490	621.991236730448	1182.205553756768	629.956519801820	542.924041642150	1211.723360263198	525.687424813594	567.741936754841	1068.098972117920	750.040304140665	329.052932709703	970.043971537413	638.852956929814	270.161865387694	1047.514563016552	556.910158920290	334.000335299165	1041.912277213869	489.699016480220	345.629691052131	1016.497813068200	418.945497686249	338.324041971015	925.885618873541	303.804995340670	289.382726592680	977.317507440818	194.859263002073	365.424822416970	1154.975367727813	440.033467416521	573.794465344022	1049.687304637558	368.442402455038	633.231383088252	1067.390961632817	259.900890747492	583.262817229386	893.295839991100	142.015051372904	554.139299992749	1071.779049450491	137.005316878168	595.954827090305	967.480579748219	101.492040918933	626.973995498232	1166.105547840639	47.710933429837	617.469659248868	848.369306647622	38.481212233401	410.109552314588	924.821822075994	34.975017348358	331.398052542042	1007.420334206710	96.561935244463	359.688143099281	1137.002811891213	44.134917454886	337.950560637973	1002.530837615348	1083.484066946872	132.781865095091	1170.126867619788	881.113988045862	144.369020063895	870.351964368830	1131.486911090828	721.522571657977	890.949454383527	870.894078465051	740.043249597579	
108	16.810928571429	807.997257328327	1006.384486163203	447.444365971778	1006.725814369403	1430.487223479628	261.517750087383	1091.680741572333	1369.285816662186	434.522982291172	993.172237127097	1450.373399536964	597.176124911865	982.878937430278	1499.653783300964	414.178099090978	1032.383412006528	951.864588498100	576.592306930884	1031.790275276240	968.834673502947	302.295740856821	1120.945634200736	787.569765110393	546.925074486065	1089.293924745957	663.571209182517	622.236116205320	1179.427599539556	629.309969536285	542.398386370693	1210.301724887648	527.142051751868	566.964607563924	1065.577095733441	749.295216281862	329.689837964304	966.350500798580	638.957208619718	270.213718453199	1042.647996180513	556.314568368810	334.191832867353	1036.315886803335	489.332515360894	345.774293729258	1011.067270698763	418.775442775248	338.370790231540	920.385377022901	303.727101303482	289.403386932534	971.723824054006	194.754047482460	365.472492033319	1157.657231351522	440.355276672200	573.770430313396	1057.202187630051	363.185267522719	634.309631068336	1080.687810189746	255.621413165353	584.210320733210	913.518442624914	127.497866733088	556.143827633368	1092.342948412040	133.460927726191	597.836262981418	990.200854218536	92.011557071334	629.124515682161	1191.651345763800	49.951405854927	619.516178961129	842.643070834618	38.381565937135	410.125658246970	919.064347915023	34.946626788549	331.395987155011	1001.642352774346	96.580025413252	359.650955849840	1131.243140057458	44.253048537375	337.896778663130	1006.624407464339	1082.474443561682	132.483275241221	1177.609229069371	883.083546671465	145.791068966546	867.060814068869	1132.889326585373	720.191869003739	886.187251371504	871.859647932143	736.320204303058	
109	16.825142857143	807.175256652525	1006.468115541878	447.474862700195	1007.486441626183	1429.400112108268	260.988956319917	1091.728855312381	1368.710445376427	434.518300247245	992.879820962631	1450.570494365727	596.581997882228	983.033961992659	1499.192097225393	413.387950776218	1031.186514005068	951.534401769318	577.304701455734	1031.471239269906	968.637067600607	302.925045424576	1118.731983567020	786.486003251737	547.331474573076	1086.701427693036	662.605562288748	622.609786870924	1176.018647859916	628.102024798915	542.078394317373	1208.101787638142	528.196540847609	566.206431302045	1063.192194756057	748.493044250970	330.581054243893	962.996410565404	638.959235221906	270.429130843785	1038.034842335840	555.672590149993	334.694082340003	1031.009674795001	488.926904823780	346.224177341424	1005.884235965698	418.525331566681	338.683939293750	915.200366187605	303.602359624579	289.509166275734	966.224443584450	194.582267482311	365.686642341568	1159.733063805982	440.492436286612	573.797520979118	1064.613849657327	357.974389942154	635.651302285359	1093.737613380806	251.713292078909	585.306237839569	934.070840859313	113.826850710752	558.566082197956	1112.653535943798	130.449936506897	599.619991246105	1013.061279866915	83.387344991976	631.486788600197	1216.612932641932	52.921970179574	621.333010025554	836.921572392367	38.274665640931	410.159920647681	913.309576812454	34.928388980420	331.412981364692	995.865147897591	96.583709711400	359.681847431178	1125.486724641116	44.351862067730	337.857185254964	1010.568112255693	1081.282082253932	132.528335454741	1184.712076703858	884.774897666493	147.398461121222	864.525291462654	1133.923964512865	719.210108838999	882.692842315408	872.521227317340	733.032150423343	
110	16.839357142857	806.406706268495	1006.482727258510	447.605724134567	1008.167665085855	1428.248654087081	260.660538281458	1091.822491127108	1368.044846315109	434.647074656336	992.724150865946	1450.636712592203	596.196644218850	983.235704460015	1498.646876585864	412.823003049611	1030.059315996974	951.102504019992	578.123702527467	1031.271062923825	968.371621835896	303.632814584438	1116.345424198694	784.995131415001	547.926909070726	1083.540426248296	661.311081046855	623.132431922057	1172.090682237182	626.428548671923	542.008950065042	1205.203029133586	528.893162523589	565.507696868414	1060.937906950524	747.645817849571	331.708694478271	959.971681147349	638.877739447350	270.789880625435	1033.681482991758	554.994105141953	335.463544723755	1026.002777879734	488.491133041222	346.919442592516	1000.934231696788	418.211176639821	339.214478020975	910.283766967455	303.455920895442	289.680305732163	960.808919794962	194.363400124885	366.027389711514	1161.201458475287	440.501467045409	573.859983046287	1071.809589149561	352.958515278702	637.172933283779	1106.311037366637	248.308751312272	586.435995375307	954.545842051775	101.322589752048	561.214696287292	1132.366556164151	128.077158855740	601.146454233427	1035.639297070667	75.803730164153	633.860023886121	1240.574442021375	56.581825294648	622.703415998063	831.202113365807	38.175956539203	410.205227494036	907.557677506187	34.922498487435	331.443300837091	990.093418853210	96.573606797285	359.766425207882	1119.732837837595	44.425762654482	337.832941241414	1014.348229632871	1079.975730170881	132.925317019927	1191.378731177757	886.196711949872	149.188634787082	862.766217933745	1134.582064824465	718.580303143422	880.470632960609	872.873123782416	730.237639955723	
